<mxfile host="app.diagrams.net" agent="Mozilla/5.0 (Windows NT 10.0; Win64; x64) AppleWebKit/537.36 (KHTML, like Gecko) Chrome/132.0.0.0 Safari/537.36" version="26.0.15">
  <diagram name="페이지-1" id="mXDfOv_f5bgkxZigBqFZ">
    <mxGraphModel dx="683" dy="368" grid="1" gridSize="10" guides="1" tooltips="1" connect="1" arrows="1" fold="1" page="1" pageScale="1" pageWidth="827" pageHeight="1169" math="0" shadow="0">
      <root>
        <mxCell id="0" />
        <mxCell id="1" parent="0" />
        <mxCell id="Z90nOm6ESY4AgpdamTve-1" value="" style="ellipse;whiteSpace=wrap;html=1;fillColor=none;" vertex="1" parent="1">
          <mxGeometry x="289" y="140" width="250" height="250" as="geometry" />
        </mxCell>
        <mxCell id="Z90nOm6ESY4AgpdamTve-2" value="" style="endArrow=none;html=1;rounded=0;" edge="1" parent="1">
          <mxGeometry width="50" height="50" relative="1" as="geometry">
            <mxPoint x="413.8" y="170" as="sourcePoint" />
            <mxPoint x="413.8" y="110" as="targetPoint" />
          </mxGeometry>
        </mxCell>
        <mxCell id="Z90nOm6ESY4AgpdamTve-4" value="" style="endArrow=classic;html=1;rounded=0;entryX=0.5;entryY=0;entryDx=0;entryDy=0;" edge="1" parent="1" target="Z90nOm6ESY4AgpdamTve-1">
          <mxGeometry width="50" height="50" relative="1" as="geometry">
            <mxPoint x="390" y="110" as="sourcePoint" />
            <mxPoint x="414" y="140" as="targetPoint" />
          </mxGeometry>
        </mxCell>
        <mxCell id="Z90nOm6ESY4AgpdamTve-5" value="xn" style="text;html=1;align=center;verticalAlign=middle;resizable=0;points=[];autosize=1;strokeColor=none;fillColor=none;" vertex="1" parent="1">
          <mxGeometry x="360" y="88" width="40" height="30" as="geometry" />
        </mxCell>
        <mxCell id="Z90nOm6ESY4AgpdamTve-6" value="" style="endArrow=classic;html=1;rounded=0;" edge="1" parent="1">
          <mxGeometry width="50" height="50" relative="1" as="geometry">
            <mxPoint x="440" y="110" as="sourcePoint" />
            <mxPoint x="414" y="140" as="targetPoint" />
          </mxGeometry>
        </mxCell>
        <mxCell id="Z90nOm6ESY4AgpdamTve-7" value="x0" style="text;html=1;align=center;verticalAlign=middle;resizable=0;points=[];autosize=1;strokeColor=none;fillColor=none;" vertex="1" parent="1">
          <mxGeometry x="430" y="88" width="40" height="30" as="geometry" />
        </mxCell>
      </root>
    </mxGraphModel>
  </diagram>
</mxfile>
